<svg xmlns="http://www.w3.org/2000/svg" version="1.1" xmlns:xlink="http://www.w3.org/1999/xlink" xmlns:svgjs="http://svgjs.com/svgjs" width="1440" height="560" preserveAspectRatio="none" viewBox="0 0 1440 560"><g mask="url(&quot;#SvgjsMask1000&quot;)" fill="none"><rect width="1440" height="560" x="0" y="0" fill="#0e2a47"></rect><path d="M70.94 106.58L135.9 144.08L135.9 219.08L70.94 256.58L5.99 219.08L5.99 144.08zM70.94 556.58L135.9 594.08L135.9 669.08L70.94 706.58L5.99 669.08L5.99 594.08zM135.9 219.08L200.85 256.58L200.85 331.58L135.9 369.08L70.94 331.58L70.94 256.58zM135.9 444.08L200.85 481.58L200.85 556.58L135.9 594.08L70.94 556.58L70.94 481.58zM395.71 -5.92L460.67 31.58L460.67 106.58L395.71 144.08L330.76 106.58L330.76 31.58zM395.71 219.08L460.67 256.58L460.67 331.58L395.71 369.08L330.76 331.58L330.76 256.58zM525.62 -5.92L590.57 31.58L590.57 106.58L525.62 144.08L460.67 106.58L460.67 31.58zM720.48 106.58L785.44 144.08L785.44 219.08L720.48 256.58L655.53 219.08L655.53 144.08zM720.48 331.58L785.44 369.08L785.44 444.08L720.48 481.58L655.53 444.08L655.53 369.08zM785.43 -5.92L850.39 31.58L850.39 106.58L785.43 144.08L720.48 106.58L720.48 31.58zM850.39 106.58L915.34 144.08L915.34 219.08L850.39 256.58L785.43 219.08L785.43 144.08zM915.34 444.08L980.3 481.58L980.3 556.58L915.34 594.08L850.39 556.58L850.39 481.58zM1110.2 106.58L1175.16 144.08L1175.16 219.08L1110.2 256.58L1045.25 219.08L1045.25 144.08zM1045.25 219.08L1110.2 256.58L1110.2 331.58L1045.25 369.08L980.3 331.58L980.3 256.58zM1110.2 556.58L1175.16 594.08L1175.16 669.08L1110.2 706.58L1045.25 669.08L1045.25 594.08zM1240.11 106.58L1305.06 144.08L1305.06 219.08L1240.11 256.58L1175.16 219.08L1175.16 144.08zM1499.93 556.58L1564.88 594.08L1564.88 669.08L1499.93 706.58L1434.97 669.08L1434.97 594.08z" stroke="#03305d" stroke-width="2"></path><path d="M63.44 106.58 a7.5 7.5 0 1 0 15 0 a7.5 7.5 0 1 0 -15 0zM128.4 144.08 a7.5 7.5 0 1 0 15 0 a7.5 7.5 0 1 0 -15 0zM128.4 219.08 a7.5 7.5 0 1 0 15 0 a7.5 7.5 0 1 0 -15 0zM63.44 256.58 a7.5 7.5 0 1 0 15 0 a7.5 7.5 0 1 0 -15 0zM-1.51 219.08 a7.5 7.5 0 1 0 15 0 a7.5 7.5 0 1 0 -15 0zM-1.51 144.08 a7.5 7.5 0 1 0 15 0 a7.5 7.5 0 1 0 -15 0zM63.44 556.58 a7.5 7.5 0 1 0 15 0 a7.5 7.5 0 1 0 -15 0zM128.4 594.08 a7.5 7.5 0 1 0 15 0 a7.5 7.5 0 1 0 -15 0zM128.4 669.08 a7.5 7.5 0 1 0 15 0 a7.5 7.5 0 1 0 -15 0zM63.44 706.58 a7.5 7.5 0 1 0 15 0 a7.5 7.5 0 1 0 -15 0zM-1.51 669.08 a7.5 7.5 0 1 0 15 0 a7.5 7.5 0 1 0 -15 0zM-1.51 594.08 a7.5 7.5 0 1 0 15 0 a7.5 7.5 0 1 0 -15 0zM193.35 256.58 a7.5 7.5 0 1 0 15 0 a7.5 7.5 0 1 0 -15 0zM193.35 331.58 a7.5 7.5 0 1 0 15 0 a7.5 7.5 0 1 0 -15 0zM128.4 369.08 a7.5 7.5 0 1 0 15 0 a7.5 7.5 0 1 0 -15 0zM63.44 331.58 a7.5 7.5 0 1 0 15 0 a7.5 7.5 0 1 0 -15 0zM128.4 444.08 a7.5 7.5 0 1 0 15 0 a7.5 7.5 0 1 0 -15 0zM193.35 481.58 a7.5 7.5 0 1 0 15 0 a7.5 7.5 0 1 0 -15 0zM193.35 556.58 a7.5 7.5 0 1 0 15 0 a7.5 7.5 0 1 0 -15 0zM63.44 481.58 a7.5 7.5 0 1 0 15 0 a7.5 7.5 0 1 0 -15 0zM388.21 -5.92 a7.5 7.5 0 1 0 15 0 a7.5 7.5 0 1 0 -15 0zM453.17 31.58 a7.5 7.5 0 1 0 15 0 a7.5 7.5 0 1 0 -15 0zM453.17 106.58 a7.5 7.5 0 1 0 15 0 a7.5 7.5 0 1 0 -15 0zM388.21 144.08 a7.5 7.5 0 1 0 15 0 a7.5 7.5 0 1 0 -15 0zM323.26 106.58 a7.5 7.5 0 1 0 15 0 a7.5 7.5 0 1 0 -15 0zM323.26 31.58 a7.5 7.5 0 1 0 15 0 a7.5 7.5 0 1 0 -15 0zM388.21 219.08 a7.5 7.5 0 1 0 15 0 a7.5 7.5 0 1 0 -15 0zM453.17 256.58 a7.5 7.5 0 1 0 15 0 a7.5 7.5 0 1 0 -15 0zM453.17 331.58 a7.5 7.5 0 1 0 15 0 a7.5 7.5 0 1 0 -15 0zM388.21 369.08 a7.5 7.5 0 1 0 15 0 a7.5 7.5 0 1 0 -15 0zM323.26 331.58 a7.5 7.5 0 1 0 15 0 a7.5 7.5 0 1 0 -15 0zM323.26 256.58 a7.5 7.5 0 1 0 15 0 a7.5 7.5 0 1 0 -15 0zM518.12 -5.92 a7.5 7.5 0 1 0 15 0 a7.5 7.5 0 1 0 -15 0zM583.07 31.58 a7.5 7.5 0 1 0 15 0 a7.5 7.5 0 1 0 -15 0zM583.07 106.58 a7.5 7.5 0 1 0 15 0 a7.5 7.5 0 1 0 -15 0zM518.12 144.08 a7.5 7.5 0 1 0 15 0 a7.5 7.5 0 1 0 -15 0zM712.98 106.58 a7.5 7.5 0 1 0 15 0 a7.5 7.5 0 1 0 -15 0zM777.94 144.08 a7.5 7.5 0 1 0 15 0 a7.5 7.5 0 1 0 -15 0zM777.94 219.08 a7.5 7.5 0 1 0 15 0 a7.5 7.5 0 1 0 -15 0zM712.98 256.58 a7.5 7.5 0 1 0 15 0 a7.5 7.5 0 1 0 -15 0zM648.03 219.08 a7.5 7.5 0 1 0 15 0 a7.5 7.5 0 1 0 -15 0zM648.03 144.08 a7.5 7.5 0 1 0 15 0 a7.5 7.5 0 1 0 -15 0zM712.98 331.58 a7.5 7.5 0 1 0 15 0 a7.5 7.5 0 1 0 -15 0zM777.94 369.08 a7.5 7.5 0 1 0 15 0 a7.5 7.5 0 1 0 -15 0zM777.94 444.08 a7.5 7.5 0 1 0 15 0 a7.5 7.5 0 1 0 -15 0zM712.98 481.58 a7.5 7.5 0 1 0 15 0 a7.5 7.5 0 1 0 -15 0zM648.03 444.08 a7.5 7.5 0 1 0 15 0 a7.5 7.5 0 1 0 -15 0zM648.03 369.08 a7.5 7.5 0 1 0 15 0 a7.5 7.5 0 1 0 -15 0zM777.93 -5.92 a7.5 7.5 0 1 0 15 0 a7.5 7.5 0 1 0 -15 0zM842.89 31.58 a7.5 7.5 0 1 0 15 0 a7.5 7.5 0 1 0 -15 0zM842.89 106.58 a7.5 7.5 0 1 0 15 0 a7.5 7.5 0 1 0 -15 0zM777.93 144.08 a7.5 7.5 0 1 0 15 0 a7.5 7.5 0 1 0 -15 0zM712.98 31.58 a7.5 7.5 0 1 0 15 0 a7.5 7.5 0 1 0 -15 0zM907.84 144.08 a7.5 7.5 0 1 0 15 0 a7.5 7.5 0 1 0 -15 0zM907.84 219.08 a7.5 7.5 0 1 0 15 0 a7.5 7.5 0 1 0 -15 0zM842.89 256.58 a7.5 7.5 0 1 0 15 0 a7.5 7.5 0 1 0 -15 0zM777.93 219.08 a7.5 7.5 0 1 0 15 0 a7.5 7.5 0 1 0 -15 0zM907.84 444.08 a7.5 7.5 0 1 0 15 0 a7.5 7.5 0 1 0 -15 0zM972.8 481.58 a7.5 7.5 0 1 0 15 0 a7.5 7.5 0 1 0 -15 0zM972.8 556.58 a7.5 7.5 0 1 0 15 0 a7.5 7.5 0 1 0 -15 0zM907.84 594.08 a7.5 7.5 0 1 0 15 0 a7.5 7.5 0 1 0 -15 0zM842.89 556.58 a7.5 7.5 0 1 0 15 0 a7.5 7.5 0 1 0 -15 0zM842.89 481.58 a7.5 7.5 0 1 0 15 0 a7.5 7.5 0 1 0 -15 0zM1102.7 106.58 a7.5 7.5 0 1 0 15 0 a7.5 7.5 0 1 0 -15 0zM1167.66 144.08 a7.5 7.5 0 1 0 15 0 a7.5 7.5 0 1 0 -15 0zM1167.66 219.08 a7.5 7.5 0 1 0 15 0 a7.5 7.5 0 1 0 -15 0zM1102.7 256.58 a7.5 7.5 0 1 0 15 0 a7.5 7.5 0 1 0 -15 0zM1037.75 219.08 a7.5 7.5 0 1 0 15 0 a7.5 7.5 0 1 0 -15 0zM1037.75 144.08 a7.5 7.5 0 1 0 15 0 a7.5 7.5 0 1 0 -15 0zM1102.7 331.58 a7.5 7.5 0 1 0 15 0 a7.5 7.5 0 1 0 -15 0zM1037.75 369.08 a7.5 7.5 0 1 0 15 0 a7.5 7.5 0 1 0 -15 0zM972.8 331.58 a7.5 7.5 0 1 0 15 0 a7.5 7.5 0 1 0 -15 0zM972.8 256.58 a7.5 7.5 0 1 0 15 0 a7.5 7.5 0 1 0 -15 0zM1102.7 556.58 a7.5 7.5 0 1 0 15 0 a7.5 7.5 0 1 0 -15 0zM1167.66 594.08 a7.5 7.5 0 1 0 15 0 a7.5 7.5 0 1 0 -15 0zM1167.66 669.08 a7.5 7.5 0 1 0 15 0 a7.5 7.5 0 1 0 -15 0zM1102.7 706.58 a7.5 7.5 0 1 0 15 0 a7.5 7.5 0 1 0 -15 0zM1037.75 669.08 a7.5 7.5 0 1 0 15 0 a7.5 7.5 0 1 0 -15 0zM1037.75 594.08 a7.5 7.5 0 1 0 15 0 a7.5 7.5 0 1 0 -15 0zM1232.61 106.58 a7.5 7.5 0 1 0 15 0 a7.5 7.5 0 1 0 -15 0zM1297.56 144.08 a7.5 7.5 0 1 0 15 0 a7.5 7.5 0 1 0 -15 0zM1297.56 219.08 a7.5 7.5 0 1 0 15 0 a7.5 7.5 0 1 0 -15 0zM1232.61 256.58 a7.5 7.5 0 1 0 15 0 a7.5 7.5 0 1 0 -15 0zM1492.43 556.58 a7.5 7.5 0 1 0 15 0 a7.5 7.5 0 1 0 -15 0zM1557.38 594.08 a7.5 7.5 0 1 0 15 0 a7.5 7.5 0 1 0 -15 0zM1557.38 669.08 a7.5 7.5 0 1 0 15 0 a7.5 7.5 0 1 0 -15 0zM1492.43 706.58 a7.5 7.5 0 1 0 15 0 a7.5 7.5 0 1 0 -15 0zM1427.47 669.08 a7.5 7.5 0 1 0 15 0 a7.5 7.5 0 1 0 -15 0zM1427.47 594.08 a7.5 7.5 0 1 0 15 0 a7.5 7.5 0 1 0 -15 0z" fill="#03305d"></path><path d="M49.24 357.83L92.55 382.83L92.55 432.83L49.24 457.83L5.94 432.83L5.94 382.83zM5.94 432.83L49.24 457.83L49.24 507.83L5.94 532.83L-37.36 507.83L-37.36 457.83zM135.85 57.83L179.15 82.83L179.15 132.83L135.85 157.83L92.55 132.83L92.55 82.83zM92.55 132.83L135.85 157.83L135.85 207.83L92.55 232.83L49.24 207.83L49.24 157.83zM135.85 207.83L179.15 232.83L179.15 282.83L135.85 307.83L92.55 282.83L92.55 232.83zM179.15 432.83L222.45 457.83L222.45 507.83L179.15 532.83L135.85 507.83L135.85 457.83zM395.66 57.83L438.97 82.83L438.97 132.83L395.66 157.83L352.36 132.83L352.36 82.83zM352.36 132.83L395.66 157.83L395.66 207.83L352.36 232.83L309.06 207.83L309.06 157.83zM438.97 132.83L482.27 157.83L482.27 207.83L438.97 232.83L395.66 207.83L395.66 157.83zM482.27 507.83L525.57 532.83L525.57 582.83L482.27 607.83L438.97 582.83L438.97 532.83zM568.87 57.83L612.18 82.83L612.18 132.83L568.87 157.83L525.57 132.83L525.57 82.83zM525.57 432.83L568.87 457.83L568.87 507.83L525.57 532.83L482.27 507.83L482.27 457.83zM568.87 507.83L612.18 532.83L612.18 582.83L568.87 607.83L525.57 582.83L525.57 532.83zM698.78 282.83L742.08 307.83L742.08 357.83L698.78 382.83L655.48 357.83L655.48 307.83zM742.08 357.83L785.39 382.83L785.39 432.83L742.08 457.83L698.78 432.83L698.78 382.83zM785.39 282.83L828.69 307.83L828.69 357.83L785.39 382.83L742.08 357.83L742.08 307.83zM915.29 57.83L958.6 82.83L958.6 132.83L915.29 157.83L871.99 132.83L871.99 82.83zM871.99 132.83L915.29 157.83L915.29 207.83L871.99 232.83L828.69 207.83L828.69 157.83zM1001.9 57.83L1045.2 82.83L1045.2 132.83L1001.9 157.83L958.6 132.83L958.6 82.83zM958.6 282.83L1001.9 307.83L1001.9 357.83L958.6 382.83L915.29 357.83L915.29 307.83zM1001.9 357.83L1045.2 382.83L1045.2 432.83L1001.9 457.83L958.6 432.83L958.6 382.83zM958.6 432.83L1001.9 457.83L1001.9 507.83L958.6 532.83L915.29 507.83L915.29 457.83zM1045.2 132.83L1088.5 157.83L1088.5 207.83L1045.2 232.83L1001.9 207.83L1001.9 157.83zM1088.5 507.83L1131.81 532.83L1131.81 582.83L1088.5 607.83L1045.2 582.83L1045.2 532.83zM1175.11 57.83L1218.41 82.83L1218.41 132.83L1175.11 157.83L1131.81 132.83L1131.81 82.83zM1131.81 432.83L1175.11 457.83L1175.11 507.83L1131.81 532.83L1088.5 507.83L1088.5 457.83zM1175.11 507.83L1218.41 532.83L1218.41 582.83L1175.11 607.83L1131.81 582.83L1131.81 532.83zM1261.71 507.83L1305.02 532.83L1305.02 582.83L1261.71 607.83L1218.41 582.83L1218.41 532.83zM1348.32 507.83L1391.62 532.83L1391.62 582.83L1348.32 607.83L1305.02 582.83L1305.02 532.83zM1391.62 132.83L1434.92 157.83L1434.92 207.83L1391.62 232.83L1348.32 207.83L1348.32 157.83zM1391.62 432.83L1434.92 457.83L1434.92 507.83L1391.62 532.83L1348.32 507.83L1348.32 457.83z" stroke="rgba(6, 80, 156, 0.93)" stroke-width="2"></path></g><defs><mask id="SvgjsMask1000"><rect width="1440" height="560" fill="#ffffff"></rect></mask></defs></svg>